<?xml version="1.0" encoding="iso-8859-1"?>
<!-- Generator: Adobe Illustrator 19.0.0, SVG Export Plug-In . SVG Version: 6.00 Build 0)  -->
<svg version="1.1" id="Capa_1" xmlns="http://www.w3.org/2000/svg" xmlns:xlink="http://www.w3.org/1999/xlink" x="0px" y="0px"
	 viewBox="0 0 512 512" style="enable-background:new 0 0 512 512;" xml:space="preserve">
<g>
	<g>
		<path d="M442,176c-5.52,0-10,4.48-10,10s4.48,10,10,10c5.52,0,10-4.48,10-10S447.52,176,442,176z"/>
	</g>
</g>
<g>
	<g>
		<path d="M276,316c-5.52,0-10,4.48-10,10c0,5.52,4.48,10,10,10c5.52,0,10-4.48,10-10C286,320.48,281.52,316,276,316z"/>
	</g>
</g>
<g>
	<g>
		<path d="M276,256H70c-5.522,0-10,4.478-10,10c0,5.522,4.478,10,10,10h206c5.522,0,10-4.478,10-10C286,260.478,281.522,256,276,256
			z"/>
	</g>
</g>
<g>
	<g>
		<path d="M236,316H70c-5.522,0-10,4.478-10,10c0,5.522,4.478,10,10,10h166c5.522,0,10-4.478,10-10C246,320.478,241.522,316,236,316
			z"/>
	</g>
</g>
<g>
	<g>
		<path d="M482,36H196c-16.542,0-30,13.458-30,30v110H30c-16.542,0-30,13.458-30,30v180c0,16.542,13.458,30,30,30h30v50
			c0,3.812,2.166,7.291,5.586,8.973c3.417,1.683,7.501,1.274,10.517-1.051L151.285,416H316c16.542,0,30-13.458,30-30V276h136
			c16.542,0,30-13.458,30-30V66C512,49.458,498.542,36,482,36z M326,386c0,5.514-4.486,10-10,10H147.88
			c-2.208,0-4.354,0.73-6.103,2.078L80,445.672V406c0-5.522-4.478-10-10-10H30c-5.514,0-10-4.486-10-10V206c0-5.514,4.486-10,10-10
			h286c5.514,0,10,4.486,10,10V386z M492,246c0,5.514-4.486,10-10,10H346v-50c0-3.506-0.61-6.87-1.72-10H402c5.522,0,10-4.478,10-10
			c0-5.522-4.478-10-10-10c-8.024,0-208.025,0-216,0V66c0-5.514,4.486-10,10-10h286c5.514,0,10,4.486,10,10V246z"/>
	</g>
</g>
<g>
	<g>
		<path d="M442,116H236c-5.522,0-10,4.478-10,10c0,5.522,4.478,10,10,10h206c5.522,0,10-4.478,10-10
			C452,120.478,447.522,116,442,116z"/>
	</g>
</g>
<g>
</g>
<g>
</g>
<g>
</g>
<g>
</g>
<g>
</g>
<g>
</g>
<g>
</g>
<g>
</g>
<g>
</g>
<g>
</g>
<g>
</g>
<g>
</g>
<g>
</g>
<g>
</g>
<g>
</g>
</svg>
